<svg data-testid="icon" color="#FFF" class="style__Icon-sc-__sc-hqksj3-1 fIVJJK style__OuterIcon-sc-1vq2311-0 fhevyD" xmlns="http://www.w3.org/2000/svg" viewBox="0 0 32 32"><path d="M29.358 4.507c-.839-.839-1.845-1.51-2.95-1.971s-2.279-.685-3.481-.685a9.31 9.31 0 0 0-3.481.685 9.178 9.178 0 0 0-2.95 1.971l-.489.503-.489-.489a9.074 9.074 0 0 0-6.431-2.656c-2.405 0-4.725.951-6.431 2.656S0 8.533 0 10.952a9.08 9.08 0 0 0 2.656 6.431l12.358 12.358a1.392 1.392 0 0 0 1.971 0l12.358-12.358c.839-.839 1.51-1.845 1.971-2.95s.685-2.279.685-3.481a9.256 9.256 0 0 0-.685-3.481 8.992 8.992 0 0 0-1.957-2.964zm-.615 8.835a6.326 6.326 0 0 1-1.37 2.041l-11.366 11.38L4.641 15.397a6.31 6.31 0 0 1-1.845-4.446c0-1.664.657-3.271 1.845-4.446C5.815 5.331 7.423 4.66 9.087 4.66s3.271.657 4.446 1.845l1.482 1.482a1.392 1.392 0 0 0 1.971 0l1.482-1.482c.587-.587 1.272-1.049 2.041-1.37s1.58-.475 2.405-.475c.825 0 1.649.168 2.404.475s1.454.783 2.041 1.37 1.049 1.272 1.37 2.041c.322.769.475 1.58.475 2.405s-.14 1.636-.461 2.39z" class="style__Path-sc-__sc-hqksj3-2 kqvXtw"/></svg>