<svg width="22" height="16" viewBox="0 0 22 16" fill="none" xmlns="http://www.w3.org/2000/svg">
<path d="M21.6841 14.6445C21.8045 14.4616 21.8743 14.2425 21.8743 14.0066C21.8743 13.3662 21.3543 12.8486 20.7163 12.8486C20.0784 12.8486 19.5583 13.3686 19.5583 14.0066C19.5583 14.2425 19.6282 14.4616 19.7485 14.6445H21.6841Z" fill="#54BA4F"/>
<path d="M20.0301 14.6445C19.8809 14.4495 19.7894 14.2063 19.7894 13.9415C19.7894 13.4552 20.0879 13.0411 20.5116 12.8678C19.9675 12.9641 19.5559 13.4359 19.5559 14.0089C19.5559 14.2448 19.6257 14.4639 19.7461 14.6469H20.0301V14.6445Z" fill="#479946"/>
<path d="M3.94383 15.6026C4.15568 15.2824 4.28087 14.8972 4.28087 14.4832C4.28087 13.3589 3.36846 12.4465 2.24419 12.4465C1.11993 12.4465 0.20752 13.3589 0.20752 14.4832C0.20752 14.8972 0.332705 15.28 0.544558 15.6026H3.94383Z" fill="#54BA4F"/>
<path d="M1.04048 15.6027C0.778075 15.2584 0.619186 14.8323 0.619186 14.3653C0.619186 13.513 1.144 12.7812 1.88789 12.4803C0.932149 12.6488 0.20752 13.4793 0.20752 14.4832C0.20752 14.8973 0.332705 15.2801 0.544557 15.6027H1.04048Z" fill="#479946"/>
<path d="M0.573453 6.96004L7.45142 0.402258L12.9909 0.385406L9.38216 8.25281L0.708268 7.46318C0.489194 7.44392 0.402527 7.12133 0.573453 6.96004Z" fill="#A80707"/>
<path d="M14.2594 15.5255L19.108 15.5087L19.0983 7.01774L12.7837 0.965515L8.25537 0.979959L14.2594 15.5255Z" fill="#F5AC4D"/>
<path d="M14.2258 7.0347L14.2355 15.5256L19.084 15.5088L19.0743 7.01785L14.2258 7.0347Z" fill="#EB8A28"/>
<path d="M1.91438 15.588L14.5822 15.5639L14.5701 7.03449L8.25549 0.979858L1.90234 7.05856L1.91438 15.588Z" fill="#E8CC9A"/>
<path d="M1.91671 14.0042L1.91431 15.5883L19.0863 15.5498L19.0912 13.9657L1.91671 14.0042Z" fill="#EB8A28"/>
<path d="M19.0743 7.01772L12.7837 0.965515L8.25537 0.979959L14.57 7.03457L19.0743 7.01772Z" fill="#F5AC4D"/>
<path d="M20.3911 6.98652L13.6793 0.628555C13.5132 0.469666 13.3037 0.385406 13.0895 0.385406L7.51392 0.402258L14.7145 7.19596C14.8421 7.31633 14.9985 7.38133 15.1623 7.38133L20.278 7.36448C20.4489 7.36448 20.526 7.1117 20.3911 6.98652Z" fill="#FF3939"/>
<path d="M8.15687 8.12045V8.09879C8.15687 7.95916 8.04372 7.84601 7.90409 7.84601L3.07724 7.85323C2.93761 7.85323 2.82446 7.96638 2.82446 8.10601V8.13008C2.82446 8.26971 2.93761 8.38286 3.07724 8.38286C3.21687 8.38286 3.33002 8.49601 3.33002 8.63564L3.34206 15.528L7.66335 15.5208L7.65132 8.62601C7.65132 8.48638 7.76446 8.37323 7.90409 8.37323C8.04372 8.37323 8.15687 8.26008 8.15687 8.12045Z" fill="#9F3B08"/>
<path d="M6.06729 15.1525H6.6884C6.90988 15.1525 7.08803 14.9719 7.08803 14.7529L7.08321 12.3021C7.08321 12.0806 6.90266 11.9025 6.68358 11.9025H6.06247C5.84099 11.9025 5.66284 12.0831 5.66284 12.3021L5.66766 14.7529C5.66766 14.9743 5.84821 15.1525 6.06729 15.1525Z" fill="#B75C34"/>
<path d="M4.21841 15.1548H4.83952C5.061 15.1548 5.23915 14.9743 5.23915 14.7552L5.23433 12.3045C5.23433 12.083 5.05378 11.9048 4.83471 11.9048H4.21359C3.99211 11.9048 3.81396 12.0854 3.81396 12.3045L3.81878 14.7552C3.81637 14.9767 3.99693 15.1548 4.21841 15.1548Z" fill="#B75C34"/>
<path d="M6.06244 11.2862H6.68355C6.90503 11.2862 7.08318 11.1056 7.08318 10.8866L7.08077 9.05213C7.08077 8.83065 6.90022 8.6525 6.68114 8.6525H6.06003C5.83855 8.6525 5.6604 8.83305 5.6604 9.05213L5.66281 10.8866C5.66281 11.1081 5.84096 11.2862 6.06244 11.2862Z" fill="#B75C34"/>
<path d="M4.21111 11.2885H4.83222C5.0537 11.2885 5.23184 11.108 5.23184 10.8889L5.22944 9.05448C5.22944 8.83299 5.04888 8.65485 4.82981 8.65485H4.20871C3.98723 8.65485 3.80908 8.8354 3.80908 9.05448L3.81149 10.8889C3.81149 11.1104 3.98964 11.2885 4.21111 11.2885Z" fill="#B75C34"/>
<path d="M12.9257 12.1264H12.9065C12.7981 12.1264 12.7091 12.0373 12.7091 11.929L12.7067 8.98712C12.7067 8.87879 12.7957 8.78971 12.9041 8.78971H12.9233C13.0317 8.78971 13.1207 8.70064 13.1207 8.5923C13.1207 8.48397 13.0317 8.3949 12.9233 8.3949L9.33144 8.39971C9.22311 8.39971 9.13403 8.48879 9.13403 8.59712C9.13403 8.70545 9.22311 8.79453 9.33144 8.79453H9.3507C9.45904 8.79453 9.54811 8.8836 9.54811 8.99193L9.55052 11.9338C9.55052 12.0421 9.46144 12.1312 9.35311 12.1312H9.33385C9.22552 12.1312 9.13644 12.2203 9.13644 12.3286C9.13644 12.4369 9.22552 12.526 9.33385 12.526L12.9257 12.5212C13.0341 12.5212 13.1231 12.4321 13.1231 12.3238C13.1255 12.213 13.0365 12.1264 12.9257 12.1264Z" fill="#F8EEE2"/>
<path d="M11.3993 9.95488H12.331C12.4032 9.95488 12.461 9.8971 12.461 9.82488V9.12673C12.461 9.05451 12.4032 8.99673 12.331 8.99673H11.3993C11.3271 8.99673 11.2693 9.05451 11.2693 9.12673V9.82488C11.2717 9.8971 11.3295 9.95488 11.3993 9.95488Z" fill="#3C77BC"/>
<path d="M9.92126 9.95717H10.8529C10.9251 9.95717 10.9829 9.89939 10.9829 9.82717V9.12902C10.9829 9.0568 10.9251 8.99902 10.8529 8.99902H9.92126C9.84904 8.99902 9.79126 9.0568 9.79126 9.12902V9.82717C9.79126 9.89939 9.85145 9.95717 9.92126 9.95717Z" fill="#3C77BC"/>
<path d="M11.4017 12.0084H12.3334C12.4056 12.0084 12.4634 11.9506 12.4634 11.8784L12.461 10.5952C12.461 10.523 12.4032 10.4652 12.331 10.4652H11.3993C11.3271 10.4652 11.2693 10.523 11.2693 10.5952L11.2717 11.8784C11.2741 11.9506 11.3319 12.0084 11.4017 12.0084Z" fill="#3C77BC"/>
<path d="M9.92367 12.0107H10.8553C10.9276 12.0107 10.9853 11.9529 10.9853 11.8807L10.9829 10.5975C10.9829 10.5253 10.9251 10.4675 10.8529 10.4675H9.92126C9.84904 10.4675 9.79126 10.5253 9.79126 10.5975L9.79367 11.8807C9.79367 11.9529 9.85144 12.0107 9.92367 12.0107Z" fill="#3C77BC"/>
<path d="M18.4269 12.1264H18.4077C18.2993 12.1264 18.2103 12.0373 18.2103 11.929L18.2079 8.98712C18.2079 8.87879 18.2969 8.78971 18.4053 8.78971H18.4245C18.5329 8.78971 18.6219 8.70064 18.6219 8.5923C18.6219 8.48397 18.5329 8.3949 18.4245 8.3949L15.5934 8.39971C15.4851 8.39971 15.396 8.48879 15.396 8.59712C15.396 8.70545 15.4851 8.79453 15.5934 8.79453H15.6127C15.721 8.79453 15.8101 8.8836 15.8101 8.99193L15.8125 11.9338C15.8125 12.0421 15.7234 12.1312 15.6151 12.1312H15.5958C15.4875 12.1312 15.3984 12.2203 15.3984 12.3286C15.3984 12.4369 15.4875 12.526 15.5958 12.526L18.4269 12.5212C18.5353 12.5212 18.6243 12.4321 18.6243 12.3238C18.6243 12.213 18.5377 12.1264 18.4269 12.1264Z" fill="#F8EEE2"/>
<path d="M17.2809 9.95488H17.8322C17.9044 9.95488 17.9622 9.8971 17.9622 9.82488V9.12673C17.9622 9.05451 17.9044 8.99673 17.8322 8.99673H17.2809C17.2087 8.99673 17.1509 9.05451 17.1509 9.12673V9.82488C17.1509 9.8971 17.2087 9.95488 17.2809 9.95488Z" fill="#3C77BC"/>
<path d="M16.1832 9.95717H16.7345C16.8067 9.95717 16.8645 9.89939 16.8645 9.82717V9.12902C16.8645 9.0568 16.8067 8.99902 16.7345 8.99902H16.1832C16.111 8.99902 16.0532 9.0568 16.0532 9.12902V9.82717C16.0532 9.89939 16.111 9.95717 16.1832 9.95717Z" fill="#3C77BC"/>
<path d="M17.2833 12.0084H17.8346C17.9068 12.0084 17.9646 11.9506 17.9646 11.8784L17.9622 10.5952C17.9622 10.523 17.9044 10.4652 17.8322 10.4652H17.2809C17.2087 10.4652 17.1509 10.523 17.1509 10.5952L17.1533 11.8784C17.1533 11.9506 17.2111 12.0084 17.2833 12.0084Z" fill="#3C77BC"/>
<path d="M16.1856 12.0107H16.7369C16.8091 12.0107 16.8669 11.9529 16.8669 11.8807L16.8645 10.5975C16.8645 10.5253 16.8067 10.4675 16.7345 10.4675H16.1832C16.111 10.4675 16.0532 10.5253 16.0532 10.5975L16.0556 11.8807C16.0556 11.9529 16.1134 12.0107 16.1856 12.0107Z" fill="#3C77BC"/>
<path d="M14.57 14.7072L19.1008 14.6928V13.9778L14.5676 13.9922L14.57 14.7072Z" fill="#CF6302"/>
<path d="M8.42649 1.74319L8.11594 1.44467L2.34297 6.96483C2.29723 7.00816 2.27075 7.07557 2.27075 7.14538C2.27075 7.34038 2.46334 7.44631 2.59334 7.32353L8.42649 1.74319Z" fill="#F8EEE2"/>
<path d="M16.366 1.43265H14.6086C14.3799 1.43265 14.1921 1.61802 14.1921 1.84913V3.40431L16.7825 5.56857V1.84913C16.7825 1.61802 16.5971 1.43265 16.366 1.43265Z" fill="#A80707"/>
<path d="M20.6102 15.5521C20.7619 15.3234 20.8485 15.0514 20.8485 14.7577C20.8485 13.9584 20.2009 13.3108 19.4017 13.3108C18.6024 13.3108 17.9548 13.9584 17.9548 14.7577C17.9548 15.0514 18.0439 15.3234 18.1932 15.5521H20.6102Z" fill="#54BA4F"/>
<path d="M18.5471 15.552C18.3593 15.3088 18.2486 15.0031 18.2486 14.6733C18.2486 14.0666 18.6217 13.549 19.1513 13.3324C18.4725 13.4527 17.9573 14.0426 17.9573 14.7551C17.9573 15.0488 18.0464 15.3209 18.1956 15.5496H18.5471V15.552Z" fill="#479946"/>
</svg>
