<svg data-testid="icon" color="currentColor" xmlns="http://www.w3.org/2000/svg" viewBox="0 0 32 32" class="style__Icon-sc-__sc-hqksj3-1 gNTxdK"><path d="M4 4c0 1.2-.8 2-2 2s-2-.8-2-2 .8-2 2-2 2 .8 2 2zm-2 6c-1.2 0-2 .8-2 2s.8 2 2 2 2-.8 2-2-.8-2-2-2zm0 8c-1.2 0-2 .8-2 2s.8 2 2 2 2-.8 2-2-.8-2-2-2zm0 8c-1.2 0-2 .8-2 2s.8 2 2 2 2-.8 2-2-.8-2-2-2zM8 6h22c1.2 0 2-.8 2-2s-.8-2-2-2H8c-1.2 0-2 .8-2 2s.8 2 2 2zm22 4H8c-1.2 0-2 .8-2 2s.8 2 2 2h22c1.2 0 2-.8 2-2s-.8-2-2-2zm0 8H8c-1.2 0-2 .8-2 2s.8 2 2 2h22c1.2 0 2-.8 2-2s-.8-2-2-2zm0 8H8c-1.2 0-2 .8-2 2s.8 2 2 2h22c1.2 0 2-.8 2-2s-.8-2-2-2z" class="style__Path-sc-__sc-hqksj3-2 kqvXtw"/></svg>