<svg data-testid="icon" color="currentColor" xmlns="http://www.w3.org/2000/svg" viewBox="0 0 32 32" class="style__Icon-sc-__sc-hqksj3-1 gNTxdK"><path d="M13.714 4.572v4.571a4.585 4.585 0 0 1-4.571 4.571H4.572A4.585 4.585 0 0 1 .001 9.143V4.572A4.585 4.585 0 0 1 4.572.001h4.571a4.585 4.585 0 0 1 4.571 4.571zM9.143 18.286H4.572a4.585 4.585 0 0 0-4.571 4.571v4.571a4.585 4.585 0 0 0 4.571 4.571h4.571a4.585 4.585 0 0 0 4.571-4.571v-4.571a4.585 4.585 0 0 0-4.571-4.571zM27.429 0h-4.571a4.585 4.585 0 0 0-4.571 4.571v4.571a4.585 4.585 0 0 0 4.571 4.571h4.571A4.585 4.585 0 0 0 32 9.142V4.571A4.585 4.585 0 0 0 27.429 0zm0 18.286h-4.571a4.585 4.585 0 0 0-4.571 4.571v4.571a4.585 4.585 0 0 0 4.571 4.571h4.571A4.585 4.585 0 0 0 32 27.428v-4.571a4.585 4.585 0 0 0-4.571-4.571z" class="style__Path-sc-__sc-hqksj3-2 kqvXtw"/></svg>