<svg data-testid="icon" color="currentColor" xmlns="http://www.w3.org/2000/svg" viewBox="0 0 32 32" class="style__Icon-sc-__sc-hqksj3-1 gNTxdK"><path d="M0 2.286C0 .915.914 0 2.286 0h27.429c1.371 0 2.286.914 2.286 2.286s-.914 2.286-2.286 2.286H2.286C.915 4.572 0 3.658 0 2.286zm29.714 25.143H2.285c-1.371 0-2.286.914-2.286 2.286s.914 2.286 2.286 2.286h27.429c1.371 0 2.286-.914 2.286-2.286s-.914-2.286-2.286-2.286zm0-18.286H2.285c-1.371 0-2.286.914-2.286 2.286s.914 2.286 2.286 2.286h27.429c1.371 0 2.286-.914 2.286-2.286s-.914-2.286-2.286-2.286zm0 9.143H2.285c-1.371 0-2.286.914-2.286 2.286s.914 2.286 2.286 2.286h27.429c1.371 0 2.286-.914 2.286-2.286s-.914-2.286-2.286-2.286z" class="style__Path-sc-__sc-hqksj3-2 kqvXtw"/></svg>