<svg xmlns="http://www.w3.org/2000/svg" xmlns:xlink="http://www.w3.org/1999/xlink" width="1478" height="328" fill="none"><path d="M1464.13 215.78c-10.2 0-16.84-7.48-16.84-19.56v-89.28l.17-19.05.51-11.56c.34-3.06.51-5.61.85-7.48-16.33 0-28.57 3.4-36.9 10.2-8.34 6.8-12.59 18.03-12.59 33.85l-.34 90.98c0 32.48 20.92 50.51 47.28 49.49 16.67-.68 30.95-8.5 30.95-26.02 0-7.31-1.19-13.1-1.19-13.1-3.91.85-6.63 1.53-11.9 1.53z" fill="#fff"/><g fill="#ffd111"><path d="M355.35 126.5c0-37.24-30.61-61.73-75.17-61.73-42.34 0-86.73 30.44-86.73 98.3 0 51.87 31.29 90.13 85.54 90.13 30.44 0 63.94-17.35 72.45-29.25 0 0-5.78-22.28-21.6-22.28-8.33 0-14.45 3.23-21.26 6.13-7.14 2.89-15.47 5.44-26.36 5.44-15.13 0-41.16-6.12-41.16-38.6 0 0 12.24 3.57 40.13 3.57 59.7-.18 74.16-25.35 74.16-51.71zm-73.3-21.25c20.58 0 30.44 11.22 30.44 21.43 0 12.08-10.88 19.9-30.61 19.9-28.57 0-39.46-4.08-39.46-4.08.01-17.36 13.62-37.25 39.63-37.25zM466.74 213.4c-20.58 0-31.29-17.35-33.16-24.83-2.04-7.48-3.4-18.02-3.4-28.91l.34-55.78h14.96c12.07 0 21.43-3.57 27.89-10.54 6.63-7.14 9.86-16.5 9.86-28.4h-52.72l-.34-24.83.17-19.05.51-11.57c.17-3.06.51-5.61.85-7.48-15.98 0-28.23 3.4-36.56 10.2s-12.59 18.03-12.59 33.84l-.34 123.8c0 50.67 24.15 83.84 70.24 83.84 22.79 0 39.46-12.24 39.46-30.78 0-6.63-.85-10.04-1.53-12.08-3.92.87-11.4 2.57-23.64 2.57zm115.64 2.38c-10.2 0-16.84-7.48-16.84-19.56v-89.28l.17-19.05.51-11.56c.34-3.06.51-5.61.85-7.48-16.33 0-28.57 3.4-36.9 10.2s-12.59 18.03-12.59 33.85l-.34 90.98c0 32.48 20.92 50.51 47.28 49.49 16.67-.68 30.95-8.5 30.95-26.02 0-7.31-1.19-13.1-1.19-13.1-3.91.85-6.63 1.53-11.9 1.53zM529.32 51c3.74 1.87 7.82 2.89 12.07 2.89 9.86 0 17.68-4.76 23.47-14.11 2.38-4.25 3.57-8.84 3.57-13.78 0-4.59-1.02-8.84-3.23-12.92s-5.44-7.14-9.7-9.35C551.76 1.52 547.85.5 543.77.5c-4.59 0-9.01 1.36-13.26 3.91s-7.65 6.12-10.03 10.71c-2.38 4.08-3.57 8.68-3.57 13.77 0 4.59 1.02 8.84 3.23 12.75 2.04 3.75 5.1 6.98 9.18 9.36z"/><use xlink:href="#B"/></g><use xlink:href="#B" x="488.15" fill="#fff"/><path d="M85.81 64.77C30.03 64.77.78 103.88.78 151.5c0 44.04 26.87 85.2 75.68 85.2 25.34 0 39.96-10.72 43.7-13.95v22.11c0 25.34-9.86 42.17-35.37 42.17-12.24 0-21.43-3.4-29.93-7.31-7.48-3.57-13.09-7.82-20.57-7.82-19.05 0-24.32 23.47-24.15 23.64 14.29 18.37 46.94 31.97 74.31 31.97 53.91 0 83.67-31.46 83.67-93.87v-72.95c-.18-56.97-25.35-95.92-82.31-95.92zm-.34 129.76c-20.92 0-36.9-13.26-36.9-42.34 0-30.95 16.32-47.11 36.9-47.11 20.24 0 35.03 12.25 35.03 44.73 0 33.32-15.99 44.72-35.03 44.72z" fill="#ffd111"/><path d="M1051.32 83.35c-6.77-6.14-15.15-10.79-24.92-13.84-10.09-3.14-21.51-4.74-33.97-4.74-13.01 0-24.36 1.27-33.72 3.77-9.17 2.46-16.76 5.75-22.56 9.79-5.61 3.9-9.77 8.24-12.38 12.87-2.57 4.56-3.82 9.16-3.82 14.04v10.25c.52-.38 1.05-.75 1.57-1.11 4.05-2.83 8.73-5.24 13.91-7.15 5.04-1.86 11.03-3.35 17.81-4.44 6.73-1.08 14.88-1.63 24.22-1.63 14.25 0 24.6 1.4 31.65 4.29 8.69 3.57 13.47 11.31 13.47 21.8v14.76h-16.25c-33.24 0-57.6 5-72.39 14.85-14.1 9.4-20.95 23.24-20.95 42.31 0 9.61 2.13 17.47 6.5 24.03 4.53 6.79 10.37 12.43 17.38 16.76 7.24 4.47 15.4 7.82 24.27 9.95 9.07 2.18 18.07 3.29 26.75 3.29 16.78 0 30.93-1.34 42.08-3.99 10.46-2.48 18.94-6.77 25.21-12.73 6.22-5.92 10.73-14.08 13.4-24.26 2.85-10.87 4.3-24.86 4.3-41.58v-29.57c0-13.2-1.94-24.76-5.77-34.33-3.74-9.41-9.06-17.28-15.79-23.39zm-27.33 107.12c0 11.03-3.13 19-9.31 23.72-5.61 4.28-12.28 6.45-19.81 6.45-10.95 0-18.86-2-24.2-6.12-3.99-3.08-8.76-8.91-8.76-19.17 0-8.97 4.02-16.02 11.62-20.38 6.57-3.77 16.5-5.61 30.38-5.61h20.08v21.11zm-190.82 78.22c-3.74-2.21-7.65-3.23-11.73-3.23-4.59 0-9.01 1.36-13.26 3.91s-7.65 6.12-10.03 10.71c-2.38 4.08-3.57 8.67-3.57 13.77 0 4.59 1.02 8.84 3.23 12.75 2.04 3.74 5.1 6.98 9.19 9.35 3.74 1.87 7.82 2.89 12.07 2.89 9.86 0 17.69-4.76 23.47-14.11a27.72 27.72 0 0 0 3.57-13.77c0-4.59-1.02-8.84-3.23-12.93-2.23-4.07-5.46-7.13-9.71-9.34zm-27.52-149.42c10.02-8.82 24.23-13.29 42.24-13.29 10.08 0 19.63 1.54 28.38 4.59a95.2 95.2 0 0 1 4.97 1.88c2.04.84 4.26-.66 4.26-2.86v-6.86c0-5.18-1.16-9.84-3.54-14.22-2.47-4.53-5.94-8.6-10.32-12.09-4.52-3.59-9.8-6.46-15.69-8.53-5.9-2.07-12.39-3.11-19.27-3.11-16.06 0-30.44 2.59-42.74 7.71-12.26 5.1-22.68 12.05-30.97 20.67-8.31 8.63-14.7 18.8-19.02 30.25-4.36 11.54-6.56 23.93-6.56 36.82 0 14.01 2.31 26.95 6.88 38.46 4.52 11.42 10.94 21.23 19.07 29.14 8.17 7.96 18.07 14.24 29.41 18.66 1.98.77 4.01 1.47 6.07 2.09 7.5 2.25 13.73 3.48 23.17 4.29 2.86.24 5.77.33 8.73.33 8.1 0 15.63-1.12 22.38-3.34 6.67-2.19 12.45-5.17 17.17-8.86 4.63-3.62 8.34-7.89 11.03-12.67 2.59-4.6 3.85-9.34 3.85-14.49v-4.9c0-2.13-2.1-3.62-4.11-2.91a102.77 102.77 0 0 1-7.68 2.38c-7.9 2.14-17.53 3.22-28.62 3.22-16.44 0-29.75-4.56-39.54-13.56-9.97-9.15-15.03-23.19-15.03-41.72-.01-15.56 5.2-28.03 15.48-37.08zm505.77 149.42c-3.74-2.21-7.65-3.23-11.73-3.23-4.59 0-9.02 1.36-13.27 3.91s-7.65 6.12-10.03 10.71c-2.38 4.08-3.57 8.67-3.57 13.77 0 4.59 1.02 8.84 3.23 12.75 2.04 3.74 5.1 6.98 9.19 9.35 3.74 1.87 7.82 2.89 12.07 2.89 9.86 0 17.69-4.76 23.47-14.11a27.72 27.72 0 0 0 3.57-13.77c0-4.59-1.02-8.84-3.23-12.93-2.22-4.07-5.45-7.13-9.7-9.34zm46-108.31c-8.8-7.96-20.64-13.18-35.21-15.5-9.98-1.62-18.1-3.1-24.13-4.4-6.32-1.36-11.03-2.65-14.38-3.95-4.52-1.74-7.4-3.76-9.04-6.34-1.52-2.38-2.29-5.2-2.29-8.38 0-4.42 1.76-10.79 10.16-16.04 5.87-3.67 15.19-5.38 29.32-5.38 13.56 0 25.74 1.62 36.2 4.81 6.4 1.96 12.21 4.28 17.36 6.94v-8.72c0-12.01-4.9-21.11-14.99-27.8-10.84-7.19-26.39-10.84-46.21-10.84-10.2 0-20.33 1.38-30.1 4.09-9.61 2.67-18.31 6.72-25.84 12.02-7.37 5.19-13.36 11.7-17.81 19.37-4.34 7.46-6.54 16.47-6.54 26.76 0 13.4 3.59 23.22 10.98 30.03 7.72 7.11 19.69 11.9 35.54 14.22 10.01 1.4 18.09 2.71 24.01 3.89 6.38 1.28 11.2 2.7 14.72 4.32 4.36 2.02 7.3 4.41 8.98 7.34 1.52 2.66 2.28 5.67 2.28 8.94 0 4.96-1.76 11.9-10.13 16.83-5.71 3.37-14.7 4.94-28.3 4.94-14.35 0-26.83-1.76-37.07-5.22-6.08-2.05-11.59-4.4-16.49-7.02v7.83c0 5.97 1.09 11.46 3.24 16.34 2.07 4.71 5.31 8.62 9.92 11.98 4.83 3.52 11.4 6.36 19.53 8.45 4.36 1.12 9.3 1.86 14.72 2.48 6.71.77 13.04 1.09 23.11.62 21.56-1.02 38.75-6.41 51.13-16.39 13.35-10.76 19.84-25.03 19.84-43.62-.01-14.32-4.1-24.98-12.51-32.6z" fill="#fff"/><defs ><path id="B" d="M700.57 69.19c-10.03 0-20.07 1.19-30.1 3.4s-19.22 6.46-27.38 12.75-14.8 14.96-19.89 26.19c-5.1 11.22-7.65 25.51-7.65 43.02v51.19c0 15.82 2.04 30.44 11.56 37.58 10.38 7.82 22.45 8.16 38.43 8.16-.34-1.53-.51-6.12-.85-9.19-.34-2.89-.51-6.8-.51-11.56-.17-4.93-.17-11.22-.17-19.05v-65.64c0-15.47 2.55-35.37 29.76-37.58 15.31-1.36 28.91-7.14 28.91-23.81 0-3.91-.85-11.22-2.72-15.47h-19.39v.01z"/></defs></svg>